<svg width="262" height="216" viewBox="0 0 262 216" fill="none" xmlns="http://www.w3.org/2000/svg">
<path opacity="0.05" d="M219.812 41.7006C194.061 15.8081 158.174 0 118.726 0C40.1034 0 -24 63.5048 -24 142V284H37.9119V143.908C37.9119 99.7543 72.977 62.4146 117.356 61.3244C140.368 60.7793 161.188 70.0461 176.255 85.0365C191.048 99.7543 200.088 119.923 200.088 142C200.088 164.349 191.048 184.518 176.255 198.964C161.462 213.681 141.19 222.676 119 222.676C91.3314 222.676 68.8678 245.025 68.8678 272.553V284H119C158.448 284 194.061 268.192 220.086 242.299C245.837 216.679 262 180.975 262 141.727C261.726 102.752 245.563 67.3205 219.812 41.7006Z" fill="url(#paint0_linear_2907_13618)"/>
<defs>
<linearGradient id="paint0_linear_2907_13618" x1="179.385" y1="397.43" x2="404.453" y2="110.405" gradientUnits="userSpaceOnUse">
<stop offset="0.0001" stop-color="#0679D7"/>
<stop offset="1" stop-color="#8BF18F"/>
</linearGradient>
</defs>
</svg>
