<svg width="370" height="296" viewBox="0 0 370 296" fill="none" xmlns="http://www.w3.org/2000/svg">
<path d="M243.27 24.1326C228.349 9.14832 207.556 0 184.698 0C139.143 0 102 36.751 102 82.1771V164.354H137.873V83.2813C137.873 57.729 158.19 36.1201 183.905 35.4892C197.238 35.1737 209.302 40.5365 218.032 49.2117C226.603 57.7291 231.841 69.401 231.841 82.1771C231.841 95.111 226.603 106.783 218.032 115.143C209.46 123.66 197.714 128.865 184.857 128.865C168.825 128.865 155.81 141.799 155.81 157.73V164.354H184.857C207.714 164.354 228.349 155.206 243.429 140.222C258.349 125.395 267.714 104.732 267.714 82.0194C267.556 59.4641 258.191 38.9592 243.27 24.1326Z" fill="url(#paint0_linear_2907_13602)"/>
<path d="M102 200.002C121.841 200.002 137.873 184.072 137.873 164.355H102V200.002Z" fill="url(#paint1_linear_2907_13602)"/>
<path d="M32.8666 251.807C30.0198 249.323 25.9827 248.081 20.8069 248.081H1.29396C0.569342 248.081 0 248.65 0 249.375V294.706C0 295.431 0.569342 296 1.29396 296H7.40145C8.12606 296 8.6954 295.431 8.6954 294.706V275.922H20.8069C25.9309 275.922 29.9163 274.68 32.8148 272.144C35.7133 269.608 37.1625 266.245 37.1625 262.001C37.1107 257.654 35.7133 254.291 32.8666 251.807ZM26.6038 267.383C25.1028 268.625 22.8254 269.246 19.7717 269.246H8.6954V254.86H19.7717C22.8772 254.86 25.1546 255.481 26.6556 256.723C28.1565 257.965 28.8812 259.724 28.8812 262.053C28.8294 264.33 28.1048 266.089 26.6038 267.383Z" fill="#222222"/>
<path d="M73.3414 268.936C71.9439 266.245 69.9253 264.227 67.3374 262.778C64.7495 261.329 61.7475 260.604 58.2797 260.604C54.7601 260.604 51.6546 261.329 49.1184 262.778C46.5305 264.227 44.5637 266.245 43.1662 268.936C41.7688 271.627 41.0959 274.732 41.0959 278.302C41.0959 281.925 41.7688 285.081 43.1662 287.669C44.5637 290.308 46.5305 292.326 49.1184 293.775C51.7064 295.224 54.7601 295.949 58.2797 295.949C61.7475 295.949 64.7495 295.224 67.3374 293.775C69.9253 292.326 71.8921 290.308 73.3414 287.669C74.7388 285.03 75.4634 281.925 75.4634 278.302C75.4634 274.732 74.7906 271.627 73.3414 268.936ZM64.7495 286.686C63.2485 288.549 61.0746 289.48 58.3314 289.48C55.433 289.48 53.2591 288.549 51.7581 286.686C50.2571 284.823 49.4808 282.028 49.4808 278.302C49.4808 274.628 50.2571 271.834 51.8099 269.971C53.3626 268.108 55.5365 267.177 58.3832 267.177C61.1781 267.177 63.3002 268.108 64.8012 269.971C66.3022 271.834 67.0268 274.628 67.0268 278.302C67.0268 282.028 66.2505 284.823 64.7495 286.686Z" fill="#222222"/>
<path d="M104.035 288.497C102.43 289.118 100.826 289.428 99.2729 289.428C96.2191 289.428 93.8382 288.497 92.1302 286.582C90.4222 284.667 89.594 281.977 89.594 278.354C89.594 274.732 90.4739 271.937 92.182 270.074C93.89 268.211 96.2709 267.228 99.2211 267.228C100.826 267.228 102.43 267.539 104.086 268.16C105.225 268.574 106.364 269.143 107.399 269.867C108.072 270.333 108.952 270.023 109.262 269.298L110.711 265.728C110.918 265.21 110.763 264.589 110.349 264.227C109.055 263.192 107.451 262.364 105.536 261.691C103.258 260.915 100.929 260.553 98.6 260.553C95.0287 260.553 91.9749 261.277 89.3352 262.778C86.6956 264.279 84.6252 266.349 83.2278 269.039C81.7785 271.73 81.0539 274.887 81.0539 278.458C81.0539 282.028 81.7268 285.081 83.1242 287.721C84.47 290.36 86.4886 292.378 89.0247 293.775C91.6126 295.172 94.6664 295.897 98.2377 295.897C100.722 295.897 103.155 295.535 105.484 294.81C107.399 294.189 109.055 293.361 110.401 292.326C110.867 291.964 111.022 291.343 110.815 290.826L108.745 285.754C107.14 286.996 105.639 287.928 104.035 288.497Z" fill="#222222"/>
<path d="M133.847 278.302L147.149 264.227C147.925 263.399 147.356 262.053 146.217 262.053H139.54C139.178 262.053 138.868 262.208 138.609 262.467L124.996 277.112L123.495 278.716L124.996 280.269L139.489 295.586C139.748 295.845 140.058 296 140.42 296H147.408C148.546 296 149.116 294.655 148.339 293.827L133.847 278.302ZM116.612 251.238V294.655C116.612 295.379 117.181 295.948 117.905 295.948H123.754C124.479 295.948 125.048 295.379 125.048 294.655V249.271C125.048 248.392 124.168 247.771 123.34 248.081L117.491 250.047C116.922 250.203 116.612 250.668 116.612 251.238Z" fill="#222222"/>
<path d="M183.069 277.63C183.069 274.111 182.448 271.109 181.206 268.574C179.964 266.038 178.256 264.072 175.978 262.674C173.753 261.329 171.061 260.604 167.904 260.604C164.695 260.604 161.796 261.381 159.364 262.881C156.879 264.382 154.964 266.452 153.567 269.143C152.169 271.834 151.496 274.887 151.496 278.406C151.496 282.028 152.221 285.185 153.67 287.824C155.12 290.463 157.138 292.481 159.83 293.879C162.521 295.276 165.678 295.949 169.353 295.949C171.786 295.949 174.167 295.586 176.496 294.862C178.463 294.241 180.171 293.413 181.62 292.378C182.086 292.016 182.293 291.395 182.034 290.826L180.585 287.41C180.274 286.686 179.394 286.427 178.721 286.841C177.583 287.565 176.34 288.186 175.047 288.6C173.287 289.221 171.475 289.532 169.612 289.532C166.248 289.532 163.711 288.6 162.055 286.686C160.554 284.978 159.726 282.391 159.623 278.975H181.723C182.5 278.923 183.069 278.354 183.069 277.63ZM159.933 274.421C160.244 272.455 160.917 270.799 161.9 269.557C163.401 267.642 165.471 266.711 168.163 266.711C170.699 266.711 172.614 267.539 173.908 269.246C174.891 270.54 175.512 272.248 175.719 274.421H159.933Z" fill="#222222"/>
<path d="M207.655 288.911C207.137 289.015 206.568 289.066 205.998 289.066C204.963 289.066 204.031 288.911 203.203 288.549C202.375 288.187 201.702 287.566 201.236 286.686C200.719 285.806 200.512 284.616 200.512 283.063V252.17C200.512 251.29 199.632 250.669 198.804 250.979L192.955 252.946C192.438 253.101 192.075 253.619 192.075 254.136V283.426C192.075 287.462 193.11 290.567 195.181 292.689C197.251 294.81 200.201 295.897 204.031 295.897C205.015 295.897 205.946 295.845 206.826 295.742C207.396 295.69 207.965 295.535 208.534 295.38C209.104 295.224 209.466 294.707 209.466 294.138V290.049C209.466 289.273 208.741 288.652 207.965 288.808C207.862 288.859 207.758 288.859 207.655 288.911ZM185.502 262.778V266.556C185.502 267.28 186.071 267.849 186.796 267.849H208.172C208.897 267.849 209.466 267.28 209.466 266.556V262.778C209.466 262.054 208.897 261.484 208.172 261.484H186.796C186.071 261.484 185.502 262.105 185.502 262.778Z" fill="#222222"/>
<path d="M267.125 251.807C264.278 249.323 260.241 248.081 255.065 248.081H235.552C234.828 248.081 234.258 248.65 234.258 249.375V294.706C234.258 295.431 234.828 296 235.552 296H241.66C242.384 296 242.954 295.431 242.954 294.706V275.922H255.065C260.189 275.922 264.175 274.68 267.073 272.144C269.972 269.608 271.421 266.245 271.421 262.001C271.421 257.654 269.972 254.291 267.125 251.807ZM260.862 267.383C259.361 268.625 257.084 269.246 254.03 269.246H242.902V254.86H254.03C257.136 254.86 259.413 255.481 260.914 256.723C262.415 257.965 263.14 259.724 263.14 262.053C263.14 264.33 262.415 266.089 260.862 267.383Z" fill="#222222"/>
<path d="M278.408 251.238V294.655C278.408 295.379 278.978 295.948 279.702 295.948H285.551C286.276 295.948 286.845 295.379 286.845 294.655V249.271C286.845 248.392 285.965 247.771 285.137 248.081L279.288 250.047C278.771 250.203 278.408 250.668 278.408 251.238Z" fill="#222222"/>
<path d="M320.177 262.778V266.659C319.349 265.055 318.159 263.761 316.658 262.778C314.536 261.381 311.999 260.656 309.153 260.656C306.202 260.656 303.563 261.432 301.337 262.933C299.06 264.434 297.3 266.504 296.058 269.195C294.816 271.886 294.195 274.991 294.195 278.561C294.195 282.132 294.816 285.185 296.058 287.824C297.3 290.463 299.06 292.481 301.337 293.879C303.615 295.276 306.254 296 309.204 296C312.051 296 314.587 295.328 316.709 293.93C318.262 292.947 319.401 291.653 320.229 290.101V294.241C320.229 294.965 320.798 295.535 321.523 295.535H327.216C327.941 295.535 328.51 294.965 328.51 294.241V262.778C328.51 262.053 327.941 261.484 327.216 261.484H321.523C320.747 261.484 320.177 262.105 320.177 262.778ZM317.9 286.582C316.399 288.497 314.225 289.48 311.43 289.48C308.583 289.48 306.41 288.549 304.857 286.634C303.304 284.719 302.476 282.028 302.476 278.509C302.476 274.939 303.252 272.144 304.857 270.178C306.41 268.212 308.635 267.228 311.43 267.228C314.225 267.228 316.347 268.212 317.9 270.074C319.401 271.989 320.177 274.732 320.177 278.354C320.177 281.925 319.453 284.667 317.9 286.582Z" fill="#222222"/>
<path d="M357.133 261.121C354.338 261.121 351.905 261.794 349.783 263.088C348.023 264.174 346.626 265.675 345.591 267.59L345.073 263.088C345.021 262.415 344.452 261.949 343.779 261.949H338.448C337.672 261.949 337.102 262.622 337.154 263.346C337.258 264.485 337.361 265.623 337.413 266.762C337.465 268.418 337.516 270.022 337.516 271.574V294.654C337.516 295.378 338.086 295.948 338.81 295.948H344.659C345.384 295.948 345.953 295.378 345.953 294.654V276.697C345.953 274.006 346.729 271.833 348.282 270.229C349.835 268.573 351.905 267.745 354.493 267.745C356.667 267.745 358.323 268.366 359.307 269.608C360.29 270.85 360.808 272.764 360.808 275.404V294.654C360.808 295.378 361.377 295.948 362.102 295.948H367.95C368.675 295.948 369.244 295.378 369.244 294.654V275.093C369.244 265.778 365.207 261.121 357.133 261.121Z" fill="#222222"/>
<defs>
<linearGradient id="paint0_linear_2907_13602" x1="51.5394" y1="214.611" x2="271.155" y2="-6.3979" gradientUnits="userSpaceOnUse">
<stop stop-color="#0679D7"/>
<stop offset="1" stop-color="#8BF18F"/>
</linearGradient>
<linearGradient id="paint1_linear_2907_13602" x1="64.1998" y1="227.192" x2="283.815" y2="6.18402" gradientUnits="userSpaceOnUse">
<stop stop-color="#0679D7"/>
<stop offset="1" stop-color="#8BF18F"/>
</linearGradient>
</defs>
</svg>
