<svg width="116" height="116" viewBox="0 0 116 116" fill="none" xmlns="http://www.w3.org/2000/svg">
<path d="M98.8889 16.8928C88.4444 6.40382 73.8889 0 57.8889 0C26 0 0 25.7257 0 57.524V115.048H25.1111V58.2969C25.1111 40.4103 39.3333 25.2841 57.3333 24.8424C66.6667 24.6216 75.1111 28.3756 81.2222 34.4482C87.2222 40.4103 90.8889 48.5807 90.8889 57.524C90.8889 66.5777 87.2222 74.7481 81.2222 80.5998C75.2222 86.562 67 90.2056 58 90.2056C46.7778 90.2056 37.6667 99.2593 37.6667 110.411V115.048H58C74 115.048 88.4444 108.644 99 98.1552C109.444 87.7766 116 73.3127 116 57.4136C115.889 41.6249 109.333 27.2715 98.8889 16.8928Z" fill="url(#paint0_linear_2282_13549)"/>
<defs>
<linearGradient id="paint0_linear_2282_13549" x1="-35.3224" y1="150.227" x2="118.408" y2="-4.47851" gradientUnits="userSpaceOnUse">
<stop stop-color="#0679D7"/>
<stop offset="1" stop-color="#8BF18F"/>
</linearGradient>
</defs>
</svg>
